<svg width="116" height="27" viewBox="0 0 116 27" fill="none" xmlns="http://www.w3.org/2000/svg">
<path d="M0 13.3126V25.6157H2.51007H5.02014V20.6157V15.5862L6.94384 15.6453L8.86754 15.7043L11.82 20.6453L14.7518 25.5862L17.6425 25.6157C19.2062 25.6157 20.5023 25.5764 20.5023 25.5173C20.5023 25.4582 19.165 23.1748 17.5499 20.4484C15.9143 17.722 14.5563 15.4484 14.5152 15.3795C14.4741 15.3008 14.9678 15.0055 15.6365 14.6807C17.1693 13.9523 18.7124 12.5842 19.3707 11.3441C20.2863 9.58226 20.3377 6.48187 19.453 4.83817C18.5375 3.13541 16.3978 1.6984 14.042 1.21611C13.3733 1.07832 10.4209 0.989744 6.47063 0.989744H0V13.3126ZM13.3219 5.61573C14.4741 6.1177 15.0604 7.01337 15.0604 8.31258C15.0604 9.51337 14.5358 10.4386 13.5585 10.9504C12.9721 11.2456 12.2417 11.3244 8.96013 11.3736L5.03043 11.4523V8.32242V5.1925H8.7441C11.9434 5.21218 12.5709 5.27124 13.3219 5.61573Z" fill="black"/>
<path d="M79.8799 13.5197V25.626H82.2871H84.6943V13.5197V1.41337H82.2871H79.8799V13.5197Z" fill="black"/>
<path d="M106.472 12.7514C106.534 22.0821 106.534 22.1215 107.017 23.0565C107.563 24.1195 108.859 25.3203 109.908 25.7337C110.361 25.9109 111.41 26.0093 112.912 26.0093H115.216V24.0112V22.0132H113.879C112.861 22.0132 112.439 21.9148 111.996 21.59L111.451 21.1864V16.4817V11.8065H113.334H115.216V9.90692V8.00731H113.334H111.451V5.70416V3.40101H108.921H106.411L106.472 12.7514Z" fill="black"/>
<path d="M26.9318 7.98783C25.2344 8.52917 24.0823 9.21814 22.8581 10.4485C21.6031 11.7477 21.0167 12.7516 20.5949 14.4544C19.4736 19.0213 21.531 23.3914 25.7179 25.291C27.0141 25.8914 27.1787 25.9209 29.7916 25.9209C32.1268 25.9209 32.6823 25.8618 33.7213 25.4485C35.1821 24.8874 37.1367 23.2437 37.9082 21.8855L38.4534 20.9111L36.7766 19.976C35.8611 19.4544 35.0278 19.041 34.9352 19.041C34.8529 19.041 34.4929 19.4445 34.1225 19.917C33.2893 21.0784 32.1577 21.7772 30.7792 22.0429C29.555 22.2693 28.6601 22.1414 27.6005 21.6197C26.3454 21.0193 25.0904 19.4445 25.0904 18.4406C25.0904 18.037 25.1727 18.037 31.9931 18.037H38.8958V16.3638C38.8958 12.5252 37.0441 9.69058 33.567 8.22405C32.0754 7.55476 28.6189 7.45633 26.9318 7.98783ZM32.5795 11.8953C33.1247 12.2595 33.6493 12.8303 33.9785 13.4996L34.5237 14.5233L29.8842 14.5823C27.333 14.6118 25.2036 14.5823 25.1418 14.5233C24.8538 14.2477 26.3557 12.4563 27.405 11.8559C28.4749 11.226 28.6601 11.1965 30.1517 11.2555C31.4685 11.3146 31.8491 11.3933 32.5795 11.8953Z" fill="black"/>
<path d="M64.8503 7.91907C62.1551 8.64741 59.6656 10.547 58.6472 12.6828C57.9168 14.2478 57.5979 16.6494 57.9168 18.4604C58.7295 23.1947 62.3814 26.0293 67.741 26.0293C70.8786 26.0293 72.9669 25.301 74.9935 23.5687C76.1662 22.545 76.9583 21.2655 77.4727 19.5431C77.915 18.0765 77.8122 14.8088 77.2875 13.4112C76.4234 11.1474 74.1499 9.05095 71.5781 8.17497C69.9836 7.61395 66.4654 7.486 64.8503 7.91907ZM69.9425 12.3876C72.8743 13.6277 73.8413 17.3679 71.8662 19.8482C70.4671 21.61 67.5147 22.2695 65.5293 21.2754C64.4491 20.7143 63.2661 19.4742 62.9369 18.5096C62.5151 17.3088 62.762 15.173 63.4204 14.238C64.9018 12.0923 67.4736 11.3738 69.9425 12.3876Z" fill="black"/>
<path d="M38.7518 8.29322C38.8135 8.43102 40.4903 12.3976 42.4757 17.0924L46.0968 25.6357L48.3703 25.5767L50.6437 25.5176L54.1722 17.2105C56.1165 12.6436 57.7625 8.7066 57.8345 8.44086L57.9682 7.97826L55.417 8.03732L52.8452 8.09637L50.6232 13.7361C49.4093 16.8365 48.3497 19.3168 48.288 19.2381C48.2057 19.1594 47.177 16.6003 45.9837 13.5393L43.8131 7.99794H41.2207C39.1324 8.01763 38.6592 8.07668 38.7518 8.29322Z" fill="black"/>
<path d="M87.1941 13.4799C87.1941 16.5606 87.2969 19.4543 87.4307 20.1236C87.8833 22.5645 89.2515 24.2476 91.5764 25.3007C92.9137 25.9011 93.068 25.9307 95.7838 25.9307C98.4379 25.9307 98.6848 25.8913 99.8576 25.3696C102.182 24.3362 103.664 22.5055 104.116 20.1334C104.25 19.474 104.353 16.5704 104.353 13.4897V8.02712H101.977H99.5695L99.5078 13.47C99.4461 18.6964 99.4255 18.972 98.9626 19.7692C98.2939 20.97 97.1623 21.4917 95.4752 21.3933C93.9733 21.3145 93.1092 20.8224 92.5228 19.6905C92.1731 19.0114 92.1319 18.3322 92.0702 13.4602L92.0085 8.01728H89.6013H87.2249V13.4799H87.1941Z" fill="black"/>
</svg>
