<svg width="36" height="37" viewBox="0 0 36 37" fill="none" xmlns="http://www.w3.org/2000/svg">
<path d="M19.1263 0.257324C20.285 0.257324 21.5725 0.257324 22.7312 0.64332L19.1263 7.71992C13.7189 7.33392 8.9553 11.7085 8.56906 17.3698C8.31157 23.0311 12.4315 27.9204 17.9676 28.1777H19.1263C21.5725 28.1777 23.8899 27.2771 25.6924 25.7331L29.5548 32.5523C26.5936 34.7397 22.9887 36.0263 18.9976 36.0263C9.47029 36.2836 1.35923 28.9497 0.972994 18.9138C0.7155 9.00657 7.92533 0.64332 17.5813 0.257324H19.1263Z" fill="#1D1D1B"/>
<path d="M22.9887 15.5684L18.4826 23.2883H27.2374L31.3573 30.7509L35.8634 23.2883L31.3573 15.5684H22.9887Z" fill="#1D1D1B"/>
<path d="M24.1475 12.7378C24.1475 11.4512 24.405 10.2932 25.0487 9.26387C25.6924 8.36321 26.8511 7.33389 27.7524 6.81923L28.3961 6.43323C29.5548 5.7899 29.9411 5.53257 29.9411 4.88925C29.9411 4.24592 29.0398 3.60259 28.3961 3.60259C27.2374 3.60259 26.2074 4.24592 25.6924 5.53257L24.1475 4.11725C24.405 3.47393 25.0487 2.8306 25.6924 2.18727C26.5937 1.54395 27.4949 1.54395 28.3961 1.54395C29.2973 1.54395 30.5848 1.92994 31.0998 2.4446C31.6148 3.08793 32.2585 3.98859 32.2585 4.88925C32.2585 6.43323 31.3573 7.71988 29.5548 8.36321L28.6536 9.00654C27.7524 9.64987 27.1086 9.9072 26.8511 10.9365H32.2585V13.1238C32.2585 12.9952 24.1475 12.7378 24.1475 12.7378Z" fill="#1D1D1B"/>
</svg>
