<svg width="112" height="25" viewBox="0 0 112 25" fill="none" xmlns="http://www.w3.org/2000/svg">
<g clip-path="url(#clip0_11520_102)">
<path d="M0 12.3129V24.6161H2.44H4.88V19.6161V14.5866L6.75 14.6456L8.62 14.7047L11.49 19.6456L14.34 24.5866L17.15 24.6161C18.67 24.6161 19.93 24.5767 19.93 24.5177C19.93 24.4586 18.63 22.1751 17.06 19.4488C15.47 16.7224 14.15 14.4488 14.11 14.3799C14.07 14.3011 14.55 14.0059 15.2 13.6811C16.69 12.9527 18.19 11.5846 18.83 10.3444C19.72 8.58262 19.77 5.48223 18.91 3.83853C18.02 2.13578 15.94 0.698765 13.65 0.21648C13 0.0786858 10.13 -0.0098896 6.29 -0.0098896H0V12.3129ZM12.95 4.61609C14.07 5.11806 14.64 6.01373 14.64 7.31295C14.64 8.51373 14.13 9.43892 13.18 9.95074C12.61 10.246 11.9 10.3248 8.71 10.374L4.89 10.4527V7.32279V4.19286H8.5C11.61 4.21255 12.22 4.27161 12.95 4.61609Z" fill="black"/>
<path d="M77.6499 12.5197V24.626H79.9899H82.3299V12.5197V0.413372H79.9899H77.6499V12.5197Z" fill="black"/>
<path d="M103.5 11.7517C103.56 21.0824 103.56 21.1217 104.03 22.0568C104.56 23.1198 105.82 24.3205 106.84 24.7339C107.28 24.9111 108.3 25.0095 109.76 25.0095H112V23.0115V21.0135H110.7C109.71 21.0135 109.3 20.915 108.87 20.5902L108.34 20.1867V15.482V10.8068H110.17H112V8.90716V7.00755H110.17H108.34V4.70441V2.40126H105.88H103.44L103.5 11.7517Z" fill="black"/>
<path d="M26.1801 6.98819C24.5301 7.52953 23.4101 8.21851 22.2201 9.44882C21.0001 10.748 20.4301 11.752 20.0201 13.4547C18.9301 18.0217 20.9301 22.3917 25.0001 24.2913C26.2601 24.8917 26.4201 24.9213 28.9601 24.9213C31.2301 24.9213 31.7701 24.8622 32.7801 24.4488C34.2001 23.8878 36.1001 22.2441 36.8501 20.8858L37.3801 19.9114L35.7501 18.9764C34.8601 18.4547 34.0501 18.0413 33.9601 18.0413C33.8801 18.0413 33.5301 18.4449 33.1701 18.9173C32.3601 20.0787 31.2601 20.7776 29.9201 21.0433C28.7301 21.2697 27.8601 21.1417 26.8301 20.6201C25.6101 20.0197 24.3901 18.4449 24.3901 17.4409C24.3901 17.0374 24.4701 17.0374 31.1001 17.0374H37.8101V15.3642C37.8101 11.5256 36.0101 8.69095 32.6301 7.22442C31.1801 6.55512 27.8201 6.4567 26.1801 6.98819ZM31.6701 10.8957C32.2001 11.2598 32.7101 11.8307 33.0301 12.5L33.5601 13.5236L29.0501 13.5827C26.5701 13.6122 24.5001 13.5827 24.4401 13.5236C24.1601 13.248 25.6201 11.4567 26.6401 10.8563C27.6801 10.2264 27.8601 10.1968 29.3101 10.2559C30.5901 10.315 30.9601 10.3937 31.6701 10.8957Z" fill="black"/>
<path d="M63.0401 6.91931C60.4201 7.64766 58.0001 9.54725 57.0101 11.6831C56.3001 13.248 55.9901 15.6496 56.3001 17.4606C57.0901 22.1949 60.6401 25.0295 65.8501 25.0295C68.9001 25.0295 70.9301 24.3012 72.9001 22.5689C74.0401 21.5453 74.8101 20.2658 75.3101 18.5433C75.7401 17.0768 75.6401 13.8091 75.1301 12.4114C74.2901 10.1477 72.0801 8.0512 69.5801 7.17521C68.0301 6.61419 64.6101 6.48624 63.0401 6.91931ZM67.9901 11.3878C70.8401 12.628 71.7801 16.3681 69.8601 18.8484C68.5001 20.6103 65.6301 21.2697 63.7001 20.2756C62.6501 19.7146 61.5001 18.4744 61.1801 17.5099C60.7701 16.3091 61.0101 14.1732 61.6501 13.2382C63.0901 11.0925 65.5901 10.374 67.9901 11.3878Z" fill="black"/>
<path d="M37.67 7.29334C37.73 7.43114 39.36 11.3977 41.29 16.0926L44.81 24.6359L47.02 24.5768L49.23 24.5178L52.66 16.2107C54.55 11.6437 56.15 7.70673 56.22 7.44098L56.35 6.97839L53.87 7.03744L51.37 7.09649L49.21 12.7363C48.03 15.8367 47 18.317 46.94 18.2382C46.86 18.1595 45.86 15.6004 44.7 12.5394L42.59 6.99807H40.07C38.04 7.01775 37.58 7.07681 37.67 7.29334Z" fill="black"/>
<path d="M84.76 12.4804C84.76 15.5611 84.86 18.4548 84.99 19.1241C85.43 21.565 86.76 23.2481 89.02 24.3012C90.32 24.9016 90.47 24.9312 93.11 24.9312C95.69 24.9312 95.93 24.8918 97.07 24.3701C99.33 23.3367 100.77 21.506 101.21 19.1339C101.34 18.4745 101.44 15.5709 101.44 12.4902V7.02761H99.13H96.79L96.73 12.4705C96.67 17.6969 96.65 17.9725 96.2 18.7697C95.55 19.9705 94.45 20.4922 92.81 20.3937C91.35 20.315 90.51 19.8229 89.94 18.691C89.6 18.0119 89.56 17.3327 89.5 12.4607L89.44 7.01777H87.1H84.79V12.4804H84.76Z" fill="black"/>
</g>
<defs>
<clipPath id="clip0_11520_102">
<rect width="112" height="25" fill="white"/>
</clipPath>
</defs>
</svg>
